<svg xmlns="http://www.w3.org/2000/svg" width="82" height="82" viewBox="0 0 82 82" fill="none">
	<path
		d="M21.0002 51.6668C25.0002 63.6668 31.6669 67.6668 38.3336 67.6668C45.0002 67.6668 51.6669 63.6668 55.6669 51.6668C55.6669 51.6668 61.0002 50.3335 61.0002 43.6668V43.6508C60.9968 42.312 60.5222 41.0171 59.6597 39.9932C58.7971 38.9692 57.6017 38.2816 56.2829 38.0508C52.3646 37.3525 48.6258 35.8769 45.2866 33.7111C41.9475 31.5453 39.0756 28.7331 36.8402 25.4401"
		stroke="black" stroke-width="2" stroke-linecap="round" stroke-linejoin="round"></path>
	<path
		d="M34.3337 21C35.0344 22.5522 35.8733 24.0381 36.8403 25.44C35.5213 28.8386 33.3074 31.8171 30.4334 34.0599C27.5594 36.3027 24.1322 37.7264 20.515 38.18C19.1784 38.3463 17.9483 38.9946 17.0558 40.0033C16.1632 41.012 15.6694 42.3117 15.667 43.6587V43.6667C15.667 50.3333 21.0003 51.6667 21.0003 51.6667"
		stroke="black" stroke-width="2" stroke-linecap="round" stroke-linejoin="round"></path>
	<path d="M47.6799 64.4401C47.8799 77.1068 53.0533 79.6935 55.6666 81.0001" stroke="black" stroke-width="2"
		stroke-linecap="round" stroke-linejoin="round"></path>
	<path d="M21.0002 81.0001C23.6136 79.6935 28.7869 77.1068 28.9869 64.4401" stroke="black" stroke-width="2"
		stroke-linecap="round" stroke-linejoin="round"></path>
	<path
		d="M17.9469 39.2C17.9202 39.0267 17.8936 38.84 17.8536 38.6534C17.3005 35.465 17.015 32.236 17.0002 29C17.0002 18.3334 26.3336 11.6667 38.3336 11.6667C50.3336 11.6667 59.6669 18.3334 59.6669 29C59.6528 32.3898 59.3405 35.7717 58.7336 39.1067"
		stroke="black" stroke-width="2" stroke-linecap="round" stroke-linejoin="round"></path>
	<path d="M25.3999 14.8267C22.1333 5.61333 29.6533 1 38.3333 1C47.0133 1 54.5333 5.61333 51.2666 14.8267"
		stroke="black" stroke-width="2" stroke-linecap="round" stroke-linejoin="round"></path>
	<path
		d="M33.6667 58.3333L33.6827 58.352C33.6827 58.352 34.8454 59.6666 38.3334 59.6666C41.8214 59.6666 42.9841 58.352 42.9841 58.352L43.0001 58.3333"
		stroke="black" stroke-width="1.983" stroke-linecap="round" stroke-linejoin="round"></path>
	<path
		d="M1 65C2.6943 64.6019 4.21439 63.6664 5.33333 62.3334C6.57926 60.3037 7.37496 58.0303 7.66667 55.6667C7.95837 58.0303 8.75408 60.3037 10 62.3334C11.1189 63.6664 12.639 64.6019 14.3333 65C12.639 65.3982 11.1189 66.3336 10 67.6667C8.75408 69.6963 7.95837 71.9698 7.66667 74.3334C7.35728 72.1854 6.68647 70.1053 5.68267 68.1814C4.59041 66.5568 2.91272 65.417 1 65Z"
		stroke="black" stroke-width="2" stroke-linecap="round" stroke-linejoin="round"></path>
	<path
		d="M67.6667 37C69.3302 36.6045 70.8273 35.6964 71.9467 34.404C72.9761 33.0707 73.6547 31.06 74.3334 27.6667C74.6251 30.0303 75.4208 32.3037 76.6667 34.3334C77.7857 35.6664 79.3058 36.6019 81.0001 37C78.6294 37.7907 77.1947 38.58 76.1427 40.4814C75.2549 42.3323 74.6452 44.3043 74.3334 46.3334C74.0283 44.1085 73.315 41.9592 72.2294 39.9934C71.1228 38.4743 69.5008 37.4102 67.6667 37Z"
		stroke="black" stroke-width="2" stroke-linecap="round" stroke-linejoin="round"></path>
	<path d="M43.6504 44.9919L43.6664 44.9999C43.6664 44.9999 46.3331 47.6665 50.3331 44.9999H51.6664" stroke="black"
		stroke-width="2" stroke-linecap="round" stroke-linejoin="round"></path>
	<path d="M33.0147 44.9919L33 44.9999C33 44.9999 30.3333 47.6665 26.3333 44.9999H25" stroke="black" stroke-width="2"
		stroke-linecap="round" stroke-linejoin="round"></path>
</svg>