<svg xmlns="http://www.w3.org/2000/svg" width="60" height="82" viewBox="0 0 60 82" fill="none">
	<path fill-rule="evenodd" clip-rule="evenodd"
		d="M60 48.9976C60 48.4079 59.5223 47.9302 58.9328 47.9302H1.06742C0.477995 47.9302 0 48.4079 0 48.9976V73.7449C0 75.889 0.851731 77.9452 2.36768 79.4611C3.88389 80.9771 5.93983 81.8288 8.08388 81.8288H51.9161C54.0602 81.8288 56.1164 80.9771 57.6323 79.4611C59.1485 77.9452 60 75.889 60 73.7449C60 64.39 60 48.9976 60 48.9976ZM57.8654 50.0648V73.7449C57.8654 75.3226 57.2386 76.836 56.123 77.9516C55.0072 79.0674 53.4941 79.6942 51.9161 79.6942C40.7875 79.6942 19.2127 79.6942 8.08388 79.6942C6.5062 79.6942 4.99281 79.0674 3.87723 77.9516C2.7614 76.836 2.13458 75.3226 2.13458 73.7449V50.0648H57.8654Z"
		fill="black"></path>
	<path fill-rule="evenodd" clip-rule="evenodd"
		d="M55.9926 40.9851C55.9926 40.3957 55.5149 39.9177 54.9254 39.9177H5.07474C4.48532 39.9177 4.00732 40.3957 4.00732 40.9851V48.9976C4.00732 49.587 4.48532 50.0647 5.07474 50.0647H54.9254C55.5149 50.0647 55.9926 49.587 55.9926 48.9976V40.9851ZM53.858 42.0523V47.9301H6.14216V42.0523H53.858Z"
		fill="black"></path>
	<path fill-rule="evenodd" clip-rule="evenodd"
		d="M53.5753 40.9852C53.5753 35.374 50.3298 32.5468 38.1253 31.2834C26.6558 30.0961 24.8952 28.1152 21.6901 25.0761C21.4496 24.8479 21.1163 24.7444 20.7887 24.7964C20.4608 24.8484 20.176 25.0497 20.0177 25.3415C17.871 29.2958 14.7633 30.5928 12.2232 32.0624C9.23462 33.7914 6.89307 35.6903 6.89307 40.9852C6.89307 41.5741 7.37132 42.0523 7.96048 42.0523C8.54939 42.0523 9.02764 41.5741 9.02764 40.9852C9.02764 36.7767 10.9168 35.2843 13.2924 33.91C15.8476 32.4317 18.8655 31.048 21.185 27.5417C24.1323 30.3207 26.7301 32.2496 37.9055 33.4067C42.2823 33.8598 45.4085 34.471 47.5807 35.3809C49.0231 35.9852 50.0098 36.707 50.618 37.6359C51.2202 38.5552 51.4408 39.6621 51.4408 40.9852C51.4408 41.5741 51.919 42.0523 52.5079 42.0523C53.0971 42.0523 53.5753 41.5741 53.5753 40.9852Z"
		fill="black"></path>
	<path fill-rule="evenodd" clip-rule="evenodd"
		d="M48.1316 23.937C49.2722 22.9213 50.1849 21.0898 50.4872 18.9611C50.927 15.8659 50.1002 12.1695 47.0457 9.67454C45.1722 8.14424 43.0578 7.30148 40.9153 6.43438C38.0353 5.26885 35.0915 4.05491 32.8171 0.493014C32.6065 0.163081 32.232 -0.0251965 31.8414 0.00272489C31.451 0.0306463 31.1069 0.270156 30.9453 0.62673C30.9453 0.62673 28.5779 5.84701 28.5051 11.804C28.4552 15.8936 29.4837 20.3095 32.9541 23.7054C37.575 28.2272 43.906 27.6992 48.1316 23.937ZM46.7122 22.3427C43.2973 25.383 38.1813 25.8336 34.447 22.1797C31.4351 19.2324 30.5964 15.3795 30.6397 11.8301C30.682 8.363 31.5647 5.16588 32.2118 3.27593C34.1196 5.55959 36.3144 6.7866 38.555 7.76385C41.016 8.83715 43.5397 9.56695 45.6952 11.3278C48.1031 13.2946 48.7205 16.221 48.3739 18.6609C48.1518 20.2227 47.5491 21.5975 46.7122 22.3427Z"
		fill="black"></path>
	<path fill-rule="evenodd" clip-rule="evenodd"
		d="M56.4703 24.796C52.986 24.2535 50.0643 23.266 47.6169 22.0169C41.675 18.9843 38.5481 14.4139 36.934 11.0513C36.6792 10.5202 36.0411 10.2958 35.5098 10.5507C34.9788 10.8059 34.7546 11.4439 35.0095 11.975C36.7678 15.6375 40.1745 20.615 46.6463 23.9181C49.2717 25.2581 52.4043 26.3232 56.1416 26.9055C56.7239 26.9959 57.27 26.5971 57.3607 26.0151C57.4514 25.4331 57.0523 24.8867 56.4703 24.796Z"
		fill="black"></path>
	<path fill-rule="evenodd" clip-rule="evenodd"
		d="M11.8183 4.64794C11.6634 4.22912 11.264 3.95093 10.8173 3.95093C10.3708 3.95093 9.97117 4.22912 9.8162 4.64794L7.94674 9.70017L2.89451 11.5696C2.47569 11.7246 2.19775 12.124 2.19775 12.5707C2.19775 13.0172 2.47569 13.4165 2.89451 13.5718L7.94674 15.4412L9.8162 20.4935C9.97117 20.9123 10.3708 21.1902 10.8173 21.1902C11.264 21.1902 11.6634 20.9123 11.8183 20.4935L13.6878 15.4412L18.74 13.5718C19.1588 13.4165 19.4368 13.0172 19.4368 12.5707C19.4368 12.124 19.1588 11.7246 18.74 11.5696L13.6878 9.70017L11.8183 4.64794ZM10.8173 8.09405L11.856 10.9013C11.9641 11.1933 12.1946 11.4236 12.4867 11.532L15.2939 12.5707L12.4867 13.6094C12.1946 13.7175 11.9641 13.9478 11.856 14.2401L10.8173 17.0473L9.77854 14.2401C9.67044 13.9478 9.44015 13.7175 9.14788 13.6094L6.34062 12.5707L9.14788 11.532C9.44015 11.4236 9.67044 11.1933 9.77854 10.9013L10.8173 8.09405Z"
		fill="black"></path>
	<path fill-rule="evenodd" clip-rule="evenodd"
		d="M37.6628 67.8351C38.4971 67.001 38.9656 65.8695 38.9656 64.6899C38.9656 63.5103 38.4971 62.3791 37.6628 61.5448C36.2751 60.1572 34.533 58.4151 33.1454 57.0274C32.3111 56.1931 31.1799 55.7246 30.0003 55.7246C28.8206 55.7246 27.6892 56.1931 26.8551 57.0274C25.4675 58.4151 23.7251 60.1572 22.3375 61.5448C21.5034 62.3791 21.0347 63.5103 21.0347 64.6899C21.0347 65.8695 21.5034 67.001 22.3375 67.8351C23.7251 69.2227 25.4675 70.9651 26.8551 72.3527C27.6892 73.1867 28.8206 73.6555 30.0003 73.6555C31.1799 73.6555 32.3111 73.1867 33.1454 72.3527L37.6628 67.8351ZM36.1535 66.3258L31.6358 70.8434C31.2022 71.2771 30.6138 71.5207 30.0003 71.5207C29.3868 71.5207 28.7984 71.2771 28.3644 70.8434L23.847 66.3258C23.4131 65.8918 23.1695 65.3034 23.1695 64.6899C23.1695 64.0764 23.4131 63.488 23.847 63.0544L28.3644 58.5367C28.7984 58.1031 29.3868 57.8592 30.0003 57.8592C30.6138 57.8592 31.2022 58.1031 31.6358 58.5367L36.1535 63.0544C36.5871 63.488 36.831 64.0764 36.831 64.6899C36.831 65.3034 36.5871 65.8918 36.1535 66.3258Z"
		fill="black"></path>
</svg>