<svg xmlns="http://www.w3.org/2000/svg" width="90" height="65" viewBox="0 0 90 65" fill="none">
	<path d="M27.6807 59.9109H62.3005V61.8226H27.6807V59.9109Z" fill="black"></path>
	<path d="M27.6807 56.8905H62.3005V58.8021H27.6807V56.8905Z" fill="black"></path>
	<path
		d="M22.7291 21.5249C18.0838 21.5249 14.3179 17.759 14.3179 13.1137C14.3179 8.46838 18.0838 4.70245 22.7291 4.70245C27.3744 4.70245 31.1403 8.46838 31.1403 13.1137C31.1403 17.759 27.3744 21.5249 22.7291 21.5249ZM22.7291 6.63321C19.1543 6.63321 16.2295 9.5389 16.2295 13.1328C16.2295 16.7267 19.1352 19.6324 22.7291 19.6324C26.323 19.6324 29.2287 16.7267 29.2287 13.1328C29.2287 9.5389 26.323 6.63321 22.7291 6.63321Z"
		fill="black"></path>
	<path
		d="M45.8026 21.5249C41.1573 21.5249 37.3914 17.759 37.3914 13.1137C37.3914 8.46838 41.1573 4.70245 45.8026 4.70245C50.4479 4.70245 54.2138 8.46838 54.2138 13.1137C54.2138 17.759 50.4479 21.5249 45.8026 21.5249ZM45.8026 6.63321C42.2278 6.63321 39.303 9.5389 39.303 13.1328C39.303 16.7267 42.2087 19.6324 45.8026 19.6324C49.3773 19.6324 52.3021 16.7267 52.3021 13.1328C52.3021 9.5389 49.3965 6.63321 45.8026 6.63321Z"
		fill="black"></path>
	<path
		d="M70.3101 21.5249C65.6649 21.5249 61.8989 17.759 61.8989 13.1137C61.8989 8.46838 65.6649 4.70245 70.3101 4.70245C74.9554 4.70245 78.7214 8.46838 78.7214 13.1137C78.7214 17.759 74.9554 21.5249 70.3101 21.5249ZM70.3101 6.63321C66.7354 6.63321 63.8106 9.5389 63.8106 13.1328C63.8106 16.7267 66.7163 19.6324 70.3101 19.6324C73.8849 19.6324 76.8097 16.7267 76.8097 13.1328C76.8097 9.5389 73.904 6.63321 70.3101 6.63321Z"
		fill="black"></path>
	<path
		d="M22.672 40.1061C18.0267 40.1061 14.2607 36.3401 14.2607 31.6948C14.2607 27.0496 18.0267 23.2836 22.672 23.2836C27.3172 23.2836 31.0832 27.0496 31.0832 31.6948C31.0832 36.3401 27.2981 40.1061 22.672 40.1061ZM22.672 25.2144C19.0972 25.2144 16.1724 28.1201 16.1724 31.714C16.1724 35.3078 19.0781 38.2135 22.672 38.2135C26.2658 38.2135 29.1715 35.3078 29.1715 31.714C29.1715 28.1201 26.2467 25.2144 22.672 25.2144Z"
		fill="black"></path>
	<path
		d="M45.7454 40.1061C41.1002 40.1061 37.3342 36.3401 37.3342 31.6948C37.3342 27.0496 41.1002 23.2836 45.7454 23.2836C50.3907 23.2836 54.1567 27.0496 54.1567 31.6948C54.1567 36.3401 50.3716 40.1061 45.7454 40.1061ZM45.7454 25.2144C42.1707 25.2144 39.2459 28.1201 39.2459 31.714C39.2459 35.3078 42.1516 38.2135 45.7454 38.2135C49.3202 38.2135 52.245 35.3078 52.245 31.714C52.245 28.1201 49.3202 25.2144 45.7454 25.2144Z"
		fill="black"></path>
	<path
		d="M70.2528 40.1061C65.6075 40.1061 61.8416 36.3401 61.8416 31.6948C61.8416 27.0496 65.6075 23.2836 70.2528 23.2836C74.8981 23.2836 78.664 27.0496 78.664 31.6948C78.664 36.3401 74.8789 40.1061 70.2528 40.1061ZM70.2528 25.2144C66.678 25.2144 63.7532 28.1201 63.7532 31.714C63.7532 35.3078 66.6589 38.2135 70.2528 38.2135C73.8275 38.2135 76.7523 35.3078 76.7523 31.714C76.7523 28.1201 73.8275 25.2144 70.2528 25.2144Z"
		fill="black"></path>
	<path
		d="M79.9447 43.5663H48.3835C47.8482 43.5663 47.4277 43.1457 47.4277 42.6104C47.4277 42.0752 47.8482 41.6546 48.3835 41.6546H79.9447C83.0989 41.6546 85.6796 39.0739 85.6796 35.9197V7.64656C85.6796 4.49235 83.0989 1.91164 79.9447 1.91164H12.8844C9.73015 1.91164 7.14943 4.49235 7.14943 7.64656V35.9197C7.14943 39.0739 9.73015 41.6546 12.8844 41.6546H39.3414C39.8767 41.6546 40.2973 42.0752 40.2973 42.6104C40.2973 43.1457 39.8767 43.5663 39.3414 43.5663H12.8844C8.65963 43.5663 5.23779 40.1444 5.23779 35.9197V7.64656C5.23779 3.42183 8.65963 0 12.8844 0H79.9447C84.1694 0 87.5912 3.42183 87.5912 7.64656V35.9197C87.5912 40.1444 84.1694 43.5663 79.9447 43.5663Z"
		fill="black"></path>
	<path
		d="M28.6555 64.0591H4.58793C2.06457 64.0591 0 61.9946 0 59.4712V59.0315C0 56.5082 2.06457 54.4436 4.58793 54.4436H28.6555V64.0591ZM4.58793 56.3552C3.11597 56.3552 1.91164 57.5596 1.91164 59.0315V59.4712C1.91164 60.9432 3.11597 62.1475 4.58793 62.1475H26.7438V56.3552H4.58793Z"
		fill="black"></path>
	<path
		d="M85.4119 64.0591H77.1346C76.5993 64.0591 76.1787 63.6386 76.1787 63.1033C76.1787 62.5681 76.5993 62.1475 77.1346 62.1475H85.4119C86.8839 62.1475 88.0882 60.9432 88.0882 59.4712V59.0315C88.0882 57.5596 86.8839 56.3552 85.4119 56.3552H63.2752V62.1475H70.6541C71.1893 62.1475 71.6099 62.5681 71.6099 63.1033C71.6099 63.6386 71.1893 64.0591 70.6541 64.0591H61.3635V54.4436H85.4119C87.9353 54.4436 89.9999 56.5082 89.9999 59.0315V59.4712C89.9999 61.9946 87.9544 64.0591 85.4119 64.0591Z"
		fill="black"></path>
</svg>