<svg xmlns="http://www.w3.org/2000/svg" width="18" height="19" viewBox="0 0 18 19" fill="none">
	<path d="M14.2333 11.1664C13.8642 10.7821 13.4191 10.5767 12.9473 10.5767C12.4794 10.5767 12.0304 10.7783 11.6462 11.1626L10.4439 12.361C10.345 12.3078 10.2461 12.2583 10.151 12.2088C10.014 12.1404 9.88467 12.0757 9.77433 12.0072C8.64819 11.2919 7.62476 10.3598 6.64319 9.15379C6.16762 8.55267 5.84803 8.04666 5.61596 7.53305C5.92793 7.24771 6.21708 6.95095 6.49861 6.66561C6.60514 6.55908 6.71167 6.44875 6.8182 6.34222C7.61715 5.54327 7.61715 4.50843 6.8182 3.70947L5.77955 2.67083C5.66161 2.55289 5.53987 2.43114 5.42573 2.3094C5.19746 2.07351 4.95777 1.83002 4.71047 1.60175C4.34143 1.23651 3.9001 1.04248 3.43595 1.04248C2.97179 1.04248 2.52286 1.23651 2.1424 1.60175C2.1386 1.60555 2.1386 1.60555 2.13479 1.60936L0.841243 2.91432C0.35426 3.4013 0.076528 3.99481 0.0156552 4.68344C-0.0756541 5.79437 0.251537 6.82921 0.502638 7.50642C1.11898 9.16901 2.03968 10.7098 3.41312 12.361C5.07951 14.3508 7.08451 15.9221 9.37486 17.0292C10.2499 17.4439 11.4179 17.9347 12.7229 18.0184C12.8028 18.0222 12.8865 18.026 12.9625 18.026C13.8414 18.026 14.5795 17.7102 15.1578 17.0825C15.1616 17.0749 15.1692 17.0711 15.173 17.0635C15.3708 16.8238 15.5991 16.6069 15.8388 16.3748C16.0024 16.2188 16.1698 16.0552 16.3334 15.884C16.71 15.4922 16.9079 15.0356 16.9079 14.5677C16.9079 14.0959 16.7062 13.6432 16.322 13.2627L14.2333 11.1664ZM15.5953 15.1726C15.5915 15.1726 15.5915 15.1764 15.5953 15.1726C15.4469 15.3324 15.2947 15.477 15.1311 15.6367C14.8838 15.8726 14.6327 16.1199 14.3969 16.3977C14.0126 16.8085 13.5599 17.0026 12.9664 17.0026C12.9093 17.0026 12.8484 17.0026 12.7913 16.9988C11.6614 16.9265 10.6113 16.4852 9.82379 16.1085C7.67042 15.0661 5.77955 13.5861 4.20827 11.7104C2.91092 10.1468 2.04348 8.70105 1.46899 7.14879C1.11517 6.20145 0.985816 5.46337 1.04288 4.76714C1.08093 4.32201 1.25213 3.95296 1.56791 3.63719L2.86527 2.33983C3.05169 2.16482 3.24953 2.06971 3.44356 2.06971C3.68324 2.06971 3.87728 2.21428 3.99902 2.33603C4.00283 2.33983 4.00663 2.34364 4.01044 2.34744C4.24251 2.5643 4.46318 2.78877 4.69526 3.02846C4.8132 3.1502 4.93494 3.27195 5.05669 3.3975L6.09533 4.43614C6.49861 4.83942 6.49861 5.21227 6.09533 5.61555C5.985 5.72589 5.87847 5.83622 5.76814 5.94274C5.44856 6.26994 5.14419 6.5743 4.8132 6.87106C4.80559 6.87866 4.79798 6.88247 4.79417 6.89008C4.46698 7.21727 4.52785 7.53685 4.59634 7.75371C4.60014 7.76513 4.60395 7.77654 4.60775 7.78795C4.87787 8.44234 5.25833 9.05867 5.83662 9.79295L5.84043 9.79676C6.89048 11.0903 7.99761 12.0985 9.21887 12.8708C9.37486 12.9698 9.53465 13.0497 9.68683 13.1257C9.82379 13.1942 9.95315 13.2589 10.0635 13.3274C10.0787 13.335 10.0939 13.3464 10.1091 13.354C10.2385 13.4187 10.3602 13.4491 10.4858 13.4491C10.8016 13.4491 10.9994 13.2513 11.0641 13.1866L12.3652 11.8855C12.4946 11.7561 12.7 11.6001 12.9397 11.6001C13.1756 11.6001 13.3696 11.7485 13.4876 11.8778C13.4914 11.8817 13.4914 11.8817 13.4952 11.8855L15.5915 13.9818C15.9834 14.3698 15.9834 14.7693 15.5953 15.1726Z" fill="black" />
	<path d="M9.72868 4.28793C10.7255 4.45533 11.631 4.9271 12.3538 5.64996C13.0767 6.37283 13.5446 7.27831 13.7158 8.2751C13.7577 8.5262 13.9746 8.70121 14.2219 8.70121C14.2523 8.70121 14.2789 8.69741 14.3094 8.6936C14.5909 8.64795 14.7773 8.38163 14.7317 8.10009C14.5262 6.89405 13.9555 5.79453 13.0843 4.92329C12.2131 4.05205 11.1135 3.48137 9.90749 3.27592C9.62596 3.23026 9.36344 3.41669 9.31398 3.69442C9.26452 3.97215 9.44714 4.24228 9.72868 4.28793Z" fill="black" />
	<path d="M17.9921 7.95174C17.6535 5.96576 16.7176 4.1586 15.2795 2.72048C13.8414 1.28236 12.0342 0.346436 10.0482 0.00783033C9.77051 -0.0416289 9.50799 0.148599 9.45853 0.426331C9.41288 0.707868 9.5993 0.970382 9.88084 1.01984C11.6538 1.3204 13.2707 2.16121 14.5566 3.44334C15.8426 4.72928 16.6796 6.34622 16.9801 8.11914C17.022 8.37024 17.2388 8.54525 17.4861 8.54525C17.5166 8.54525 17.5432 8.54144 17.5736 8.53764C17.8514 8.49579 18.0416 8.22947 17.9921 7.95174Z" fill="black" />
</svg>